<svg xmlns="http://www.w3.org/2000/svg" viewBox="0 0 1143.26 263.15">
<linearGradient id="SVGID_1_" gradientUnits="userSpaceOnUse" x1="29.8319" y1="263.4951" x2="29.8319" y2="141.5393">
<stop offset="0" stop-color="#F4C688"></stop>
<stop offset="1" stop-color="#986822"></stop>
</linearGradient>
<polygon fill="url(#SVGID_1_)" points="59.66,137.45 59.66,153.5 12.84,188.32 12.84,263.15 0,263.15 0,181.98"></polygon>
<polygon fill="#610D2E" points="157.79,0 157.79,102.96 144.67,93.19 144.67,25.97 85.37,70.04 85.37,263.15 72.33,263.15 72.33,63.54"></polygon>
<linearGradient id="SVGID_2_" gradientUnits="userSpaceOnUse" x1="151.119" y1="260.2177" x2="151.119" y2="86.3005">
<stop offset="0" stop-color="#F4C688"></stop>
<stop offset="1" stop-color="#986822"></stop>
</linearGradient>
<polygon fill="url(#SVGID_2_)" points="193.74,145.42 193.74,263.15 180.7,263.15 180.7,151.7 121.17,107.26 121.17,263.15 108.5,263.15 108.5,81.97"></polygon>
<polygon fill="#610D2E" points="234,191.57 234,263.15 221.05,263.15 221.05,197.9 206.36,187.09 206.36,170.72"></polygon>
<path d="M327.27,190.87c-2.08,0-4.25-0.81-6.51-2.44c-2.26-1.62-4.85-4.28-7.77-7.96c-2.77-3.49-6.08-8.09-9.91-13.79 c2.44-1.25,4.46-2.95,6.03-5.12c1.65-2.28,2.47-4.87,2.47-7.77c0-3.05-1.21-5.44-3.62-7.19c-2.41-1.75-5.82-2.63-10.24-2.63 c-1.68,0-3.53,0.08-5.56,0.23c-2.03,0.15-3.86,0.23-5.48,0.23c-1.78,0-3.46-0.04-5.06-0.11c-1.6-0.08-3.03-0.11-4.3-0.11 c-0.1,0-0.15,0.15-0.15,0.46c0,0.3,0.05,0.46,0.15,0.46c1.68,0,2.92,0.14,3.73,0.42c0.81,0.28,1.36,0.79,1.64,1.52 c0.28,0.74,0.42,1.84,0.42,3.31v35.25c0,1.47-0.15,2.59-0.46,3.35c-0.3,0.76-0.86,1.27-1.67,1.52c-0.81,0.25-2.06,0.38-3.73,0.38 c-0.15,0-0.23,0.15-0.23,0.46c0,0.3,0.08,0.46,0.23,0.46c1.27,0,2.71-0.02,4.34-0.08c1.62-0.05,3.32-0.08,5.1-0.08 c1.88,0,3.6,0.03,5.18,0.08c1.57,0.05,2.99,0.08,4.26,0.08c0.15,0,0.23-0.15,0.23-0.46c0-0.3-0.08-0.46-0.23-0.46 c-1.62,0-2.85-0.13-3.69-0.38c-0.84-0.25-1.38-0.76-1.64-1.52c-0.25-0.76-0.38-1.88-0.38-3.35v-16.98 c0.56,0.05,1.19,0.09,1.9,0.11c0.71,0.03,1.37,0.04,1.98,0.04c0.92,0,1.81-0.07,2.7-0.19c2.84,4.58,5.44,8.57,7.77,11.95 c2.51,3.63,4.66,6.41,6.43,8.34c1.78,1.93,3.05,2.89,3.81,2.89c0.96,0,2.45,0,4.45,0c2,0,4.61,0,7.8,0c0.1,0,0.15-0.15,0.15-0.46 C327.43,191.02,327.38,190.87,327.27,190.87z M292.71,166.81c-0.81-0.05-1.57-0.13-2.28-0.23v-16.06c0-1.93,0.42-3.26,1.26-4 c0.84-0.74,2.25-1.1,4.23-1.1c1.62,0,3.05,0.3,4.26,0.91c1.22,0.61,2.17,1.71,2.85,3.31c0.69,1.6,1.03,3.87,1.03,6.81 c0,3.55-0.69,6.18-2.06,7.88c-1.37,1.7-3.76,2.55-7.16,2.55C294.23,166.89,293.52,166.87,292.71,166.81z"></path>
<path d="M364.24,179.83c-0.28-0.05-0.44,0-0.49,0.15c-0.91,3.25-2.44,5.7-4.57,7.35c-2.13,1.65-4.92,2.47-8.37,2.47h-3.73 c-1.12,0-1.98-0.14-2.59-0.42c-0.61-0.28-1.05-0.76-1.33-1.45c-0.28-0.68-0.42-1.56-0.42-2.63v-17.28h7.23 c2.84,0,4.97,0.56,6.4,1.68c1.42,1.12,2.13,2.74,2.13,4.87c0,0.1,0.15,0.15,0.46,0.15c0.3,0,0.46-0.05,0.46-0.15 c0-1.42-0.04-2.73-0.11-3.92c-0.08-1.19-0.11-2.4-0.11-3.62c0-0.96,0.01-1.9,0.04-2.82c0.02-0.91,0.04-2.18,0.04-3.81 c0-0.15-0.14-0.23-0.42-0.23c-0.28,0-0.42,0.08-0.42,0.23c0,1.83-0.69,3.22-2.06,4.19c-1.37,0.96-3.48,1.45-6.32,1.45h-7.31 v-15.53c0-1.07,0.15-1.91,0.46-2.55c0.3-0.63,0.82-1.09,1.56-1.37c0.74-0.28,1.74-0.42,3.01-0.42h3.12c2.89,0,5.23,0.71,7,2.13 c1.78,1.42,2.94,3.58,3.5,6.47c0.1,0.15,0.28,0.22,0.53,0.19c0.25-0.02,0.38-0.09,0.38-0.19l-0.15-9.9 c0-0.46-0.25-0.68-0.76-0.68h-31.67c-0.15,0-0.23,0.15-0.23,0.46c0,0.3,0.08,0.46,0.23,0.46c1.68,0,2.92,0.14,3.73,0.42 c0.81,0.28,1.36,0.79,1.64,1.52c0.28,0.74,0.42,1.84,0.42,3.31v35.25c0,1.47-0.14,2.59-0.42,3.35c-0.28,0.76-0.83,1.27-1.64,1.52 c-0.81,0.25-2.06,0.38-3.73,0.38c-0.15,0-0.23,0.15-0.23,0.46c0,0.3,0.08,0.46,0.23,0.46h33.04c0.76,0,1.14-0.38,1.14-1.14 c0-1.68,0.08-3.5,0.23-5.48c0.15-1.98,0.33-3.68,0.53-5.1C364.66,179.96,364.52,179.88,364.24,179.83z"></path>
<path d="M422.29,190.87c-0.91,0-1.78-0.28-2.59-0.84c-0.81-0.56-1.67-1.53-2.59-2.93c-0.91-1.4-1.95-3.31-3.12-5.75l-18.65-37.61 c-0.05-0.15-0.25-0.23-0.61-0.23c-0.36,0-0.58,0.08-0.69,0.23l-16.37,36.92c-1.17,2.69-2.23,4.78-3.2,6.28 c-0.96,1.5-1.94,2.53-2.93,3.08c-0.99,0.56-2.17,0.84-3.54,0.84c-0.2,0-0.3,0.15-0.3,0.46c0,0.3,0.1,0.46,0.3,0.46 c1.68,0,3.08-0.05,4.23-0.15c1.14-0.1,2.68-0.15,4.61-0.15c1.93,0,3.53,0.05,4.8,0.15c1.27,0.1,2.66,0.15,4.19,0.15 c0.25,0,0.38-0.15,0.38-0.46c0-0.3-0.13-0.46-0.38-0.46c-3,0-5.11-0.81-6.36-2.44c-1.24-1.62-1.21-3.98,0.11-7.08l3.65-8.22 h18.45l5.77,11.72c1.22,2.39,1.6,3.99,1.14,4.8c-0.46,0.81-1.83,1.22-4.11,1.22c-0.2,0-0.3,0.15-0.3,0.46 c0,0.3,0.1,0.46,0.3,0.46c1.52,0,2.91-0.05,4.15-0.15c1.24-0.1,2.7-0.15,4.38-0.15c1.47,0,3.01,0.05,4.61,0.15 c1.6,0.1,3.16,0.15,4.68,0.15c0.2,0,0.3-0.15,0.3-0.46C422.59,191.02,422.49,190.87,422.29,190.87z M384.07,171.23l7.91-17.81 l8.76,17.81H384.07z"></path>
<path d="M461.8,178.54c-0.25-0.05-0.41,0-0.46,0.15c-0.81,3.35-2.46,6.04-4.95,8.07c-2.49,2.03-5.53,3.05-9.14,3.05h-4.57 c-1.37,0-2.41-0.1-3.12-0.3c-0.71-0.2-1.19-0.63-1.45-1.29c-0.25-0.66-0.38-1.62-0.38-2.89v-34.87c0-1.47,0.14-2.59,0.42-3.35 c0.28-0.76,0.84-1.28,1.68-1.56c0.84-0.28,2.07-0.42,3.69-0.42c0.15,0,0.23-0.15,0.23-0.46c0-0.3-0.08-0.46-0.23-0.46 c-1.22,0-2.63,0.04-4.23,0.11c-1.6,0.08-3.34,0.11-5.22,0.11c-1.78,0-3.48-0.04-5.1-0.11c-1.62-0.08-3.05-0.11-4.26-0.11 c-0.1,0-0.15,0.15-0.15,0.46c0,0.3,0.05,0.46,0.15,0.46c1.62,0,2.85,0.14,3.69,0.42c0.84,0.28,1.4,0.79,1.68,1.52 c0.28,0.74,0.42,1.84,0.42,3.31v35.25c0,1.47-0.14,2.59-0.42,3.35c-0.28,0.76-0.84,1.27-1.68,1.52 c-0.84,0.25-2.07,0.38-3.69,0.38c-0.1,0-0.15,0.15-0.15,0.46c0,0.3,0.05,0.46,0.15,0.46h35.63c0.76,0,1.14-0.38,1.14-1.14 c0-1.88,0.08-3.92,0.23-6.13c0.15-2.21,0.3-4.1,0.46-5.67C462.18,178.69,462.05,178.59,461.8,178.54z"></path>
<path d="M519.01,179.83c-0.28-0.05-0.44,0-0.49,0.15c-0.91,3.25-2.44,5.7-4.57,7.35c-2.13,1.65-4.92,2.47-8.37,2.47h-3.73 c-1.12,0-1.98-0.14-2.59-0.42c-0.61-0.28-1.05-0.76-1.33-1.45c-0.28-0.68-0.42-1.56-0.42-2.63v-17.28h7.23 c2.84,0,4.97,0.56,6.4,1.68c1.42,1.12,2.13,2.74,2.13,4.87c0,0.1,0.15,0.15,0.46,0.15c0.3,0,0.46-0.05,0.46-0.15 c0-1.42-0.04-2.73-0.11-3.92c-0.08-1.19-0.11-2.4-0.11-3.62c0-0.96,0.01-1.9,0.04-2.82c0.02-0.91,0.04-2.18,0.04-3.81 c0-0.15-0.14-0.23-0.42-0.23c-0.28,0-0.42,0.08-0.42,0.23c0,1.83-0.69,3.22-2.06,4.19c-1.37,0.96-3.48,1.45-6.32,1.45h-7.31 v-15.53c0-1.07,0.15-1.91,0.46-2.55c0.3-0.63,0.82-1.09,1.56-1.37c0.74-0.28,1.74-0.42,3.01-0.42h3.12c2.89,0,5.23,0.71,7,2.13 c1.78,1.42,2.94,3.58,3.5,6.47c0.1,0.15,0.28,0.22,0.53,0.19c0.25-0.02,0.38-0.09,0.38-0.19l-0.15-9.9 c0-0.46-0.25-0.68-0.76-0.68h-31.67c-0.15,0-0.23,0.15-0.23,0.46c0,0.3,0.08,0.46,0.23,0.46c1.67,0,2.92,0.14,3.73,0.42 c0.81,0.28,1.36,0.79,1.64,1.52c0.28,0.74,0.42,1.84,0.42,3.31v35.25c0,1.47-0.14,2.59-0.42,3.35c-0.28,0.76-0.83,1.27-1.64,1.52 c-0.81,0.25-2.06,0.38-3.73,0.38c-0.15,0-0.23,0.15-0.23,0.46c0,0.3,0.08,0.46,0.23,0.46h33.04c0.76,0,1.14-0.38,1.14-1.14 c0-1.68,0.08-3.5,0.23-5.48c0.15-1.98,0.33-3.68,0.53-5.1C519.43,179.96,519.29,179.88,519.01,179.83z"></path>
<path d="M551.44,168.57c-1.75-1.32-3.59-2.56-5.52-3.73c-1.78-1.12-3.46-2.26-5.06-3.43c-1.6-1.17-2.91-2.47-3.92-3.92 c-1.02-1.45-1.52-3.16-1.52-5.14c0-1.57,0.3-2.9,0.91-4c0.61-1.09,1.47-1.94,2.59-2.55c1.12-0.61,2.44-0.91,3.96-0.91 c1.98,0,3.65,0.48,5.02,1.45c1.37,0.96,2.51,2.13,3.43,3.5c0.91,1.37,1.62,2.73,2.13,4.07c0.51,1.35,0.89,2.4,1.14,3.16 c0.1,0.15,0.27,0.2,0.49,0.15c0.23-0.05,0.34-0.18,0.34-0.38l-0.15-10.28c0-0.3-0.08-0.58-0.23-0.84 c-0.15-0.25-0.46-0.46-0.91-0.61c-1.22-0.56-2.69-0.99-4.42-1.29c-1.73-0.3-3.43-0.46-5.1-0.46c-2.49,0-4.91,0.43-7.27,1.29 c-2.36,0.86-4.3,2.18-5.82,3.96c-1.52,1.78-2.28,4.06-2.28,6.85c0,2.28,0.52,4.23,1.56,5.82c1.04,1.6,2.37,3.01,4,4.23 c1.62,1.22,3.32,2.41,5.1,3.58c1.83,1.12,3.58,2.31,5.25,3.58c1.68,1.27,3.06,2.75,4.15,4.45c1.09,1.7,1.64,3.74,1.64,6.13 c0,1.98-0.38,3.54-1.14,4.68c-0.76,1.14-1.73,1.94-2.89,2.4c-1.17,0.46-2.41,0.69-3.73,0.69c-1.88,0-3.54-0.44-4.99-1.33 c-1.45-0.89-2.73-2.04-3.84-3.46c-1.12-1.42-2.09-2.98-2.93-4.68c-0.84-1.7-1.56-3.31-2.17-4.83c-0.05-0.2-0.22-0.29-0.49-0.27 c-0.28,0.03-0.39,0.17-0.34,0.42l0.46,11.5c0.05,0.41,0.14,0.71,0.27,0.91c0.13,0.2,0.29,0.38,0.49,0.53 c0.81,0.51,1.87,0.99,3.16,1.45c1.29,0.46,2.69,0.81,4.19,1.07c1.5,0.25,2.93,0.38,4.3,0.38c3.25,0,6.08-0.57,8.49-1.71 c2.41-1.14,4.3-2.71,5.67-4.72c1.37-2,2.06-4.33,2.06-6.97c0-2.44-0.57-4.5-1.71-6.2C554.64,171.4,553.2,169.89,551.44,168.57z"></path>
<path d="M590.08,147.59c0.25-0.69,0.74-1.15,1.45-1.41c0.71-0.25,1.75-0.38,3.12-0.38c3.15,0,5.66,0.9,7.54,2.7 c1.88,1.8,3.1,4.71,3.65,8.72c0.05,0.1,0.22,0.15,0.49,0.15c0.28,0,0.42-0.05,0.42-0.15c0-0.66,0.02-1.64,0.08-2.93 c0.05-1.29,0.1-2.71,0.15-4.26c0.05-1.55,0.13-3.02,0.23-4.42c0.1-1.4,0.18-2.5,0.23-3.31c0-0.2-0.13-0.3-0.38-0.3 c-0.25,0-0.41,0.1-0.46,0.3c-0.25,0.81-0.85,1.33-1.79,1.56c-0.94,0.23-2.32,0.34-4.15,0.34c-1.98,0-4.02,0.04-6.13,0.11 c-2.11,0.08-4.96,0.11-8.56,0.11c-5.84,0-10.94-0.08-15.3-0.23c-0.46,0-1.02-0.04-1.68-0.11c-0.66-0.08-1.26-0.23-1.79-0.46 c-0.53-0.23-0.8-0.6-0.8-1.1c0-0.25-0.14-0.38-0.42-0.38c-0.28,0-0.42,0.13-0.42,0.38c0,0.86-0.04,1.99-0.11,3.39 c-0.08,1.4-0.18,2.83-0.3,4.3c-0.13,1.47-0.24,2.83-0.34,4.07c-0.1,1.24-0.2,2.22-0.3,2.93c0,0.1,0.14,0.17,0.42,0.19 c0.28,0.03,0.42-0.04,0.42-0.19c1.12-3.76,2.65-6.6,4.61-8.53c1.95-1.93,4.48-2.89,7.58-2.89c1.37,0,2.41,0.13,3.12,0.38 c0.71,0.25,1.18,0.7,1.41,1.33c0.23,0.64,0.34,1.59,0.34,2.85v35.25c0,1.47-0.17,2.59-0.49,3.35c-0.33,0.76-0.98,1.27-1.94,1.52 c-0.96,0.25-2.41,0.38-4.34,0.38c-0.1,0-0.15,0.15-0.15,0.46c0,0.3,0.05,0.46,0.15,0.46c1.47,0,3.07-0.02,4.8-0.08 c1.72-0.05,3.58-0.08,5.56-0.08c2.08,0,4,0.03,5.75,0.08c1.75,0.05,3.31,0.08,4.68,0.08c0.15,0,0.23-0.15,0.23-0.46 c0-0.3-0.08-0.46-0.23-0.46c-1.93,0-3.36-0.13-4.3-0.38c-0.94-0.25-1.57-0.76-1.9-1.52c-0.33-0.76-0.49-1.88-0.49-3.35v-35.1 C589.7,149.25,589.83,148.28,590.08,147.59z"></path>
<path d="M659.06,190.87c-0.91,0-1.78-0.28-2.59-0.84c-0.81-0.56-1.67-1.53-2.59-2.93c-0.91-1.4-1.95-3.31-3.12-5.75l-18.65-37.61 c-0.05-0.15-0.25-0.23-0.61-0.23c-0.36,0-0.58,0.08-0.69,0.23l-16.37,36.92c-1.17,2.69-2.23,4.78-3.2,6.28 c-0.96,1.5-1.94,2.53-2.93,3.08c-0.99,0.56-2.17,0.84-3.54,0.84c-0.2,0-0.3,0.15-0.3,0.46c0,0.3,0.1,0.46,0.3,0.46 c1.67,0,3.08-0.05,4.23-0.15c1.14-0.1,2.68-0.15,4.61-0.15c1.93,0,3.53,0.05,4.8,0.15c1.27,0.1,2.66,0.15,4.19,0.15 c0.25,0,0.38-0.15,0.38-0.46c0-0.3-0.13-0.46-0.38-0.46c-3,0-5.11-0.81-6.36-2.44c-1.24-1.62-1.21-3.98,0.11-7.08l3.65-8.22 h18.45l5.77,11.72c1.22,2.39,1.6,3.99,1.14,4.8c-0.46,0.81-1.83,1.22-4.11,1.22c-0.2,0-0.3,0.15-0.3,0.46 c0,0.3,0.1,0.46,0.3,0.46c1.52,0,2.91-0.05,4.15-0.15c1.24-0.1,2.7-0.15,4.38-0.15c1.47,0,3.01,0.05,4.61,0.15 c1.6,0.1,3.16,0.15,4.68,0.15c0.2,0,0.3-0.15,0.3-0.46C659.36,191.02,659.26,190.87,659.06,190.87z M620.84,171.23l7.91-17.81 l8.76,17.81H620.84z"></path>
<path d="M699.26,142c-0.25,0-0.41,0.1-0.46,0.3c-0.25,0.81-0.85,1.33-1.79,1.56c-0.94,0.23-2.32,0.34-4.15,0.34 c-1.98,0-4.02,0.04-6.13,0.11c-2.11,0.08-4.96,0.11-8.56,0.11c-5.84,0-10.94-0.08-15.3-0.23c-0.46,0-1.02-0.04-1.67-0.11 c-0.66-0.08-1.26-0.23-1.79-0.46c-0.53-0.23-0.8-0.6-0.8-1.1c0-0.25-0.14-0.38-0.42-0.38c-0.28,0-0.42,0.13-0.42,0.38 c0,0.86-0.04,1.99-0.11,3.39c-0.08,1.4-0.18,2.83-0.3,4.3c-0.13,1.47-0.24,2.83-0.34,4.07c-0.1,1.24-0.2,2.22-0.3,2.93 c0,0.1,0.14,0.17,0.42,0.19c0.28,0.03,0.42-0.04,0.42-0.19c1.12-3.76,2.65-6.6,4.61-8.53c1.95-1.93,4.48-2.89,7.58-2.89 c1.37,0,2.41,0.13,3.12,0.38c0.71,0.25,1.18,0.7,1.41,1.33c0.23,0.64,0.34,1.59,0.34,2.85v35.25c0,1.47-0.17,2.59-0.49,3.35 c-0.33,0.76-0.98,1.27-1.94,1.52c-0.96,0.25-2.41,0.38-4.34,0.38c-0.1,0-0.15,0.15-0.15,0.46c0,0.3,0.05,0.46,0.15,0.46 c1.47,0,3.07-0.02,4.8-0.08c1.72-0.05,3.58-0.08,5.56-0.08c2.08,0,4,0.03,5.75,0.08c1.75,0.05,3.31,0.08,4.68,0.08 c0.15,0,0.23-0.15,0.23-0.46c0-0.3-0.08-0.46-0.23-0.46c-1.93,0-3.36-0.13-4.3-0.38c-0.94-0.25-1.57-0.76-1.9-1.52 c-0.33-0.76-0.49-1.88-0.49-3.35v-35.1c0-1.27,0.13-2.25,0.38-2.93c0.25-0.69,0.74-1.15,1.45-1.41c0.71-0.25,1.75-0.38,3.12-0.38 c3.15,0,5.66,0.9,7.54,2.7c1.88,1.8,3.1,4.71,3.65,8.72c0.05,0.1,0.22,0.15,0.49,0.15c0.28,0,0.42-0.05,0.42-0.15 c0-0.66,0.02-1.64,0.08-2.93c0.05-1.29,0.1-2.71,0.15-4.26c0.05-1.55,0.13-3.02,0.23-4.42c0.1-1.4,0.18-2.5,0.23-3.31 C699.64,142.1,699.51,142,699.26,142z"></path>
<path d="M740.18,179.83c-0.28-0.05-0.45,0-0.49,0.15c-0.91,3.25-2.44,5.7-4.57,7.35c-2.13,1.65-4.92,2.47-8.37,2.47h-3.73 c-1.12,0-1.98-0.14-2.59-0.42c-0.61-0.28-1.05-0.76-1.33-1.45c-0.28-0.68-0.42-1.56-0.42-2.63v-17.28h7.23 c2.84,0,4.97,0.56,6.4,1.68c1.42,1.12,2.13,2.74,2.13,4.87c0,0.1,0.15,0.15,0.46,0.15c0.3,0,0.46-0.05,0.46-0.15 c0-1.42-0.04-2.73-0.11-3.92c-0.08-1.19-0.11-2.4-0.11-3.62c0-0.96,0.01-1.9,0.04-2.82c0.02-0.91,0.04-2.18,0.04-3.81 c0-0.15-0.14-0.23-0.42-0.23c-0.28,0-0.42,0.08-0.42,0.23c0,1.83-0.69,3.22-2.06,4.19c-1.37,0.96-3.48,1.45-6.32,1.45h-7.31 v-15.53c0-1.07,0.15-1.91,0.46-2.55c0.3-0.63,0.82-1.09,1.56-1.37c0.74-0.28,1.74-0.42,3.01-0.42h3.12c2.89,0,5.23,0.71,7,2.13 c1.78,1.42,2.94,3.58,3.5,6.47c0.1,0.15,0.28,0.22,0.53,0.19c0.25-0.02,0.38-0.09,0.38-0.19l-0.15-9.9 c0-0.46-0.25-0.68-0.76-0.68h-31.67c-0.15,0-0.23,0.15-0.23,0.46c0,0.3,0.08,0.46,0.23,0.46c1.67,0,2.92,0.14,3.73,0.42 c0.81,0.28,1.36,0.79,1.64,1.52c0.28,0.74,0.42,1.84,0.42,3.31v35.25c0,1.47-0.14,2.59-0.42,3.35c-0.28,0.76-0.83,1.27-1.64,1.52 c-0.81,0.25-2.06,0.38-3.73,0.38c-0.15,0-0.23,0.15-0.23,0.46c0,0.3,0.08,0.46,0.23,0.46h33.04c0.76,0,1.14-0.38,1.14-1.14 c0-1.68,0.08-3.5,0.23-5.48c0.15-1.98,0.33-3.68,0.53-5.1C740.6,179.96,740.46,179.88,740.18,179.83z"></path>
<path d="M816.35,190.87c-1.47-0.35-3.55-1.26-6.24-2.7c-2.59-1.39-5.56-3.32-8.91-5.78c0.02-0.04,0.05-0.08,0.08-0.12 c1.12-1.88,2.03-3.77,2.74-5.67c0.71-1.9,1.27-3.64,1.67-5.22c0.41-1.32,0.79-2.36,1.14-3.12c0.35-0.76,0.94-1.32,1.75-1.68 c0.81-0.35,2-0.53,3.58-0.53c0.2,0,0.3-0.15,0.3-0.46c0-0.3-0.1-0.46-0.3-0.46l-17.36,0.08c-0.15,0-0.22,0.15-0.19,0.46 c0.02,0.3,0.09,0.46,0.19,0.46c2.28,0,3.84,0.62,4.68,1.87c0.84,1.24,1.26,3.11,1.26,5.6c0,2.33-0.29,4.48-0.88,6.43 c-0.11,0.37-0.24,0.72-0.37,1.07c-2.32-1.81-4.59-3.76-6.78-5.87c-2.61-2.51-4.97-5.14-7.08-7.88c-0.67-0.88-1.28-1.76-1.87-2.64 c0.38-0.26,0.75-0.53,1.14-0.78c1.93-1.27,3.76-2.56,5.48-3.88c1.72-1.32,3.13-2.77,4.23-4.34c1.09-1.57,1.64-3.4,1.64-5.48 c0-1.78-0.43-3.21-1.29-4.3c-0.86-1.09-2.03-1.92-3.5-2.47c-1.47-0.56-3.12-0.84-4.95-0.84c-2.84,0-5.3,0.58-7.38,1.75 c-2.08,1.17-3.69,2.77-4.83,4.8c-1.14,2.03-1.71,4.31-1.71,6.85c0,1.52,0.2,2.94,0.61,4.26c0.41,1.32,0.94,2.64,1.6,3.96 c0.65,1.25,1.43,2.51,2.31,3.79c-1.54,1.14-3.03,2.29-4.44,3.45c-1.73,1.42-3.12,2.96-4.19,4.61c-1.07,1.65-1.6,3.52-1.6,5.6 c0,1.83,0.53,3.59,1.6,5.29c1.07,1.7,2.73,3.08,4.99,4.15c2.26,1.07,5.16,1.6,8.72,1.6c3.3,0,6.18-0.47,8.64-1.41 c2.46-0.94,4.54-2.21,6.24-3.81c0,0,0,0,0,0c0.79,0.58,1.53,1.1,2.17,1.52c1.57,1.04,2.84,1.76,3.81,2.17 c0.96,0.41,1.75,0.61,2.36,0.61c1.98,0,3.95,0,5.9,0c1.95,0,3.64,0,5.06,0c0.15,0,0.25-0.14,0.3-0.42 C816.7,191.09,816.6,190.92,816.35,190.87z M779.96,146.03c0.76-1.01,1.93-1.52,3.5-1.52c1.72,0,3.15,0.62,4.26,1.87 c1.12,1.24,1.68,3.01,1.68,5.29c0,2.28-0.53,4.34-1.6,6.17s-2.46,3.5-4.19,5.02c-0.22,0.19-0.45,0.37-0.67,0.56 c-0.89-1.47-1.66-2.95-2.3-4.44c-1.22-2.84-1.83-5.63-1.83-8.37C778.81,148.57,779.19,147.05,779.96,146.03z M793.01,188.32 c-1.7,0.79-3.64,1.18-5.82,1.18c-2.79,0-5.2-0.56-7.23-1.68c-2.03-1.12-3.6-2.55-4.72-4.3c-1.12-1.75-1.67-3.62-1.67-5.6 c0-2.13,0.55-4.01,1.64-5.63c0.75-1.11,1.66-2.16,2.71-3.14c0.54,0.73,1.1,1.46,1.71,2.19c2,2.41,4.2,4.75,6.59,7 c2.38,2.26,4.69,4.3,6.93,6.13c0.96,0.77,1.83,1.44,2.66,2.06C794.96,187.24,794.04,187.85,793.01,188.32z"></path>
<path d="M903.98,144.2c-1.27,0-2.36,0.04-3.27,0.11c-0.91,0.08-2.08,0.11-3.5,0.11c-1.83,0-3.34-0.04-4.53-0.11 c-1.19-0.08-2.45-0.11-3.77-0.11c-0.15,0-0.23,0.15-0.23,0.46c0,0.3,0.08,0.46,0.23,0.46c2.18,0,3.63,0.75,4.34,2.25 c0.71,1.5,0.61,3.49-0.3,5.98l-11.11,29.01l-9.36-19.78l3.65-9.46c1.07-2.84,2.27-4.88,3.62-6.13c1.34-1.24,2.86-1.87,4.53-1.87 c0.1,0,0.15-0.15,0.15-0.46c0-0.3-0.05-0.46-0.15-0.46c-1.17,0-2.16,0.04-2.97,0.11c-0.81,0.08-1.88,0.11-3.2,0.11 c-1.32,0-2.23-0.01-2.74-0.04c-0.51-0.02-0.88-0.06-1.1-0.11c-0.23-0.05-0.6-0.08-1.1-0.08c-0.15,0-0.23,0.15-0.23,0.46 c0,0.3,0.08,0.46,0.23,0.46c1.42,0,2.19,0.61,2.32,1.83c0.13,1.22-0.34,3.17-1.41,5.86l-2.77,7.26l-4.15-8.78 c-1.22-2.64-1.8-4.33-1.75-5.06c0.05-0.74,0.79-1.1,2.21-1.1c0.15,0,0.23-0.15,0.23-0.46c0-0.3-0.08-0.46-0.23-0.46 c-0.81,0-1.79,0.04-2.93,0.11c-1.14,0.08-2.93,0.11-5.37,0.11c-0.96,0-1.71-0.01-2.25-0.04c-0.53-0.02-1.02-0.06-1.45-0.11 c-0.43-0.05-0.93-0.08-1.48-0.08c-0.15,0-0.23,0.15-0.23,0.46c0,0.3,0.08,0.46,0.23,0.46c1.12,0,2.08,0.46,2.89,1.37 c0.81,0.91,1.62,2.26,2.44,4.03l8.27,17.68l-5.44,14.15l-14.63-31.07c-1.17-2.54-1.56-4.2-1.18-4.99 c0.38-0.79,1.59-1.18,3.62-1.18c0.15,0,0.23-0.15,0.23-0.46c0-0.3-0.08-0.46-0.23-0.46c-0.66,0-1.42,0.03-2.28,0.08 c-0.86,0.05-1.92,0.09-3.16,0.11c-1.24,0.03-2.88,0.04-4.91,0.04c-1.07,0-1.92-0.01-2.55-0.04c-0.64-0.02-1.17-0.06-1.6-0.11 c-0.43-0.05-0.98-0.08-1.64-0.08c-0.15,0-0.23,0.15-0.23,0.46c0,0.3,0.08,0.46,0.23,0.46c1.01,0,1.84,0.15,2.47,0.46 c0.63,0.3,1.22,0.84,1.75,1.6c0.53,0.76,1.13,1.88,1.79,3.35l19.26,41.19c0.1,0.2,0.39,0.3,0.88,0.3c0.48,0,0.75-0.1,0.8-0.3 l8-20.99l9.82,20.99c0.1,0.2,0.39,0.3,0.88,0.3c0.48,0,0.75-0.1,0.8-0.3l14.77-38.6c1.07-2.64,2.36-4.63,3.88-5.98 c1.52-1.34,3.17-2.02,4.95-2.02c0.1,0,0.15-0.15,0.15-0.46C904.13,144.36,904.08,144.2,903.98,144.2z"></path>
<path d="M941.32,179.83c-0.28-0.05-0.44,0-0.49,0.15c-0.91,3.25-2.44,5.7-4.57,7.35c-2.13,1.65-4.92,2.47-8.37,2.47h-3.73 c-1.12,0-1.98-0.14-2.59-0.42c-0.61-0.28-1.05-0.76-1.33-1.45c-0.28-0.68-0.42-1.56-0.42-2.63v-17.28h7.23 c2.84,0,4.97,0.56,6.4,1.68c1.42,1.12,2.13,2.74,2.13,4.87c0,0.1,0.15,0.15,0.46,0.15c0.3,0,0.46-0.05,0.46-0.15 c0-1.42-0.04-2.73-0.11-3.92c-0.08-1.19-0.11-2.4-0.11-3.62c0-0.96,0.01-1.9,0.04-2.82c0.02-0.91,0.04-2.18,0.04-3.81 c0-0.15-0.14-0.23-0.42-0.23c-0.28,0-0.42,0.08-0.42,0.23c0,1.83-0.69,3.22-2.06,4.19c-1.37,0.96-3.48,1.45-6.32,1.45h-7.31 v-15.53c0-1.07,0.15-1.91,0.46-2.55c0.3-0.63,0.82-1.09,1.56-1.37c0.74-0.28,1.74-0.42,3.01-0.42h3.12c2.89,0,5.23,0.71,7,2.13 c1.78,1.42,2.94,3.58,3.5,6.47c0.1,0.15,0.28,0.22,0.53,0.19c0.25-0.02,0.38-0.09,0.38-0.19l-0.15-9.9 c0-0.46-0.25-0.68-0.76-0.68h-31.67c-0.15,0-0.23,0.15-0.23,0.46c0,0.3,0.08,0.46,0.23,0.46c1.68,0,2.92,0.14,3.73,0.42 c0.81,0.28,1.36,0.79,1.64,1.52c0.28,0.74,0.42,1.84,0.42,3.31v35.25c0,1.47-0.14,2.59-0.42,3.35c-0.28,0.76-0.83,1.27-1.64,1.52 c-0.81,0.25-2.06,0.38-3.73,0.38c-0.15,0-0.23,0.15-0.23,0.46c0,0.3,0.08,0.46,0.23,0.46h33.04c0.76,0,1.14-0.38,1.14-1.14 c0-1.68,0.08-3.5,0.23-5.48c0.15-1.98,0.33-3.68,0.53-5.1C941.74,179.96,941.6,179.88,941.32,179.83z"></path>
<path d="M999.37,190.87c-0.91,0-1.78-0.28-2.59-0.84c-0.81-0.56-1.67-1.53-2.59-2.93c-0.91-1.4-1.95-3.31-3.12-5.75l-18.65-37.61 c-0.05-0.15-0.25-0.23-0.61-0.23c-0.36,0-0.58,0.08-0.69,0.23l-16.37,36.92c-1.17,2.69-2.23,4.78-3.2,6.28 c-0.96,1.5-1.94,2.53-2.93,3.08c-0.99,0.56-2.17,0.84-3.54,0.84c-0.2,0-0.3,0.15-0.3,0.46c0,0.3,0.1,0.46,0.3,0.46 c1.67,0,3.08-0.05,4.23-0.15c1.14-0.1,2.68-0.15,4.61-0.15c1.93,0,3.53,0.05,4.8,0.15c1.27,0.1,2.66,0.15,4.19,0.15 c0.25,0,0.38-0.15,0.38-0.46c0-0.3-0.13-0.46-0.38-0.46c-3,0-5.11-0.81-6.36-2.44c-1.24-1.62-1.21-3.98,0.11-7.08l3.65-8.22 h18.45l5.77,11.72c1.22,2.39,1.6,3.99,1.14,4.8c-0.46,0.81-1.83,1.22-4.11,1.22c-0.2,0-0.3,0.15-0.3,0.46 c0,0.3,0.1,0.46,0.3,0.46c1.52,0,2.91-0.05,4.15-0.15c1.24-0.1,2.7-0.15,4.38-0.15c1.47,0,3.01,0.05,4.61,0.15 c1.6,0.1,3.16,0.15,4.68,0.15c0.2,0,0.3-0.15,0.3-0.46C999.67,191.02,999.57,190.87,999.37,190.87z M961.15,171.23l7.91-17.81 l8.76,17.81H961.15z"></path>
<path d="M1038.88,178.54c-0.25-0.05-0.41,0-0.46,0.15c-0.81,3.35-2.46,6.04-4.95,8.07c-2.49,2.03-5.53,3.05-9.14,3.05h-4.57 c-1.37,0-2.41-0.1-3.12-0.3c-0.71-0.2-1.19-0.63-1.45-1.29c-0.25-0.66-0.38-1.62-0.38-2.89v-34.87c0-1.47,0.14-2.59,0.42-3.35 c0.28-0.76,0.84-1.28,1.67-1.56c0.84-0.28,2.07-0.42,3.69-0.42c0.15,0,0.23-0.15,0.23-0.46c0-0.3-0.08-0.46-0.23-0.46 c-1.22,0-2.63,0.04-4.23,0.11c-1.6,0.08-3.34,0.11-5.22,0.11c-1.78,0-3.48-0.04-5.1-0.11c-1.62-0.08-3.05-0.11-4.26-0.11 c-0.1,0-0.15,0.15-0.15,0.46c0,0.3,0.05,0.46,0.15,0.46c1.62,0,2.85,0.14,3.69,0.42c0.84,0.28,1.4,0.79,1.68,1.52 c0.28,0.74,0.42,1.84,0.42,3.31v35.25c0,1.47-0.14,2.59-0.42,3.35c-0.28,0.76-0.84,1.27-1.68,1.52 c-0.84,0.25-2.07,0.38-3.69,0.38c-0.1,0-0.15,0.15-0.15,0.46c0,0.3,0.05,0.46,0.15,0.46h35.63c0.76,0,1.14-0.38,1.14-1.14 c0-1.88,0.08-3.92,0.23-6.13c0.15-2.21,0.3-4.1,0.46-5.67C1039.26,178.69,1039.14,178.59,1038.88,178.54z"></path>
<path d="M1084.33,142c-0.25,0-0.41,0.1-0.46,0.3c-0.26,0.81-0.85,1.33-1.79,1.56c-0.94,0.23-2.32,0.34-4.15,0.34 c-1.98,0-4.02,0.04-6.13,0.11c-2.11,0.08-4.96,0.11-8.56,0.11c-5.84,0-10.94-0.08-15.3-0.23c-0.46,0-1.02-0.04-1.67-0.11 c-0.66-0.08-1.26-0.23-1.79-0.46c-0.53-0.23-0.8-0.6-0.8-1.1c0-0.25-0.14-0.38-0.42-0.38c-0.28,0-0.42,0.13-0.42,0.38 c0,0.86-0.04,1.99-0.11,3.39c-0.08,1.4-0.18,2.83-0.3,4.3c-0.13,1.47-0.24,2.83-0.34,4.07c-0.1,1.24-0.2,2.22-0.3,2.93 c0,0.1,0.14,0.17,0.42,0.19c0.28,0.03,0.42-0.04,0.42-0.19c1.12-3.76,2.65-6.6,4.61-8.53c1.95-1.93,4.48-2.89,7.58-2.89 c1.37,0,2.41,0.13,3.12,0.38c0.71,0.25,1.18,0.7,1.41,1.33c0.23,0.64,0.34,1.59,0.34,2.85v35.25c0,1.47-0.17,2.59-0.49,3.35 c-0.33,0.76-0.98,1.27-1.94,1.52c-0.96,0.25-2.41,0.38-4.34,0.38c-0.1,0-0.15,0.15-0.15,0.46c0,0.3,0.05,0.46,0.15,0.46 c1.47,0,3.07-0.02,4.8-0.08c1.72-0.05,3.58-0.08,5.56-0.08c2.08,0,4,0.03,5.75,0.08c1.75,0.05,3.31,0.08,4.68,0.08 c0.15,0,0.23-0.15,0.23-0.46c0-0.3-0.08-0.46-0.23-0.46c-1.93,0-3.36-0.13-4.3-0.38c-0.94-0.25-1.57-0.76-1.9-1.52 c-0.33-0.76-0.49-1.88-0.49-3.35v-35.1c0-1.27,0.13-2.25,0.38-2.93c0.25-0.69,0.74-1.15,1.45-1.41c0.71-0.25,1.75-0.38,3.12-0.38 c3.15,0,5.66,0.9,7.54,2.7c1.88,1.8,3.1,4.71,3.65,8.72c0.05,0.1,0.22,0.15,0.49,0.15c0.28,0,0.42-0.05,0.42-0.15 c0-0.66,0.03-1.64,0.08-2.93c0.05-1.29,0.1-2.71,0.15-4.26c0.05-1.55,0.13-3.02,0.23-4.42c0.1-1.4,0.18-2.5,0.23-3.31 C1084.71,142.1,1084.59,142,1084.33,142z"></path>
<path d="M1143.03,190.87c-1.78,0-3.11-0.13-4-0.38c-0.89-0.25-1.48-0.76-1.79-1.52c-0.3-0.76-0.46-1.88-0.46-3.35v-35.25 c0-1.47,0.15-2.58,0.46-3.31c0.3-0.74,0.9-1.24,1.79-1.52c0.89-0.28,2.22-0.42,4-0.42c0.15,0,0.23-0.15,0.23-0.46 c0-0.3-0.08-0.46-0.23-0.46c-1.27,0-2.77,0.04-4.49,0.11c-1.73,0.08-3.48,0.11-5.25,0.11c-2.18,0-4.1-0.04-5.75-0.11 c-1.65-0.08-3.11-0.11-4.38-0.11c-0.15,0-0.23,0.15-0.23,0.46c0,0.3,0.08,0.46,0.23,0.46c1.88,0,3.29,0.15,4.23,0.46 c0.94,0.3,1.55,0.84,1.83,1.6c0.28,0.76,0.42,1.88,0.42,3.35v15.53h-26.19v-15.53c0-1.47,0.15-2.59,0.46-3.35 c0.3-0.76,0.91-1.29,1.83-1.6c0.91-0.3,2.28-0.46,4.11-0.46c0.1,0,0.15-0.15,0.15-0.46c0-0.3-0.05-0.46-0.15-0.46 c-1.32,0-2.82,0.04-4.49,0.11c-1.67,0.08-3.6,0.11-5.79,0.11c-1.78,0-3.48-0.04-5.1-0.11c-1.62-0.08-3.1-0.11-4.42-0.11 c-0.1,0-0.15,0.15-0.15,0.46c0,0.3,0.05,0.46,0.15,0.46c1.78,0,3.1,0.14,3.96,0.42c0.86,0.28,1.45,0.79,1.75,1.52 c0.3,0.74,0.46,1.84,0.46,3.31v35.25c0,1.47-0.17,2.59-0.49,3.35c-0.33,0.76-0.93,1.27-1.79,1.52c-0.86,0.25-2.18,0.38-3.96,0.38 c-0.1,0-0.15,0.15-0.15,0.46c0,0.3,0.05,0.46,0.15,0.46c1.27,0,2.74-0.02,4.42-0.08c1.68-0.05,3.4-0.08,5.18-0.08 c2.18,0,4.1,0.03,5.75,0.08c1.65,0.05,3.16,0.08,4.53,0.08c0.1,0,0.15-0.15,0.15-0.46c0-0.3-0.05-0.46-0.15-0.46 c-1.83,0-3.2-0.13-4.11-0.38c-0.91-0.25-1.52-0.76-1.83-1.52c-0.3-0.76-0.46-1.88-0.46-3.35v-17.59h26.19v17.59 c0,1.47-0.14,2.59-0.42,3.35c-0.28,0.76-0.89,1.27-1.83,1.52c-0.94,0.25-2.35,0.38-4.23,0.38c-0.15,0-0.23,0.15-0.23,0.46 c0,0.3,0.08,0.46,0.23,0.46c1.27,0,2.73-0.02,4.38-0.08c1.65-0.05,3.56-0.08,5.75-0.08c1.78,0,3.53,0.03,5.25,0.08 c1.72,0.05,3.22,0.08,4.49,0.08c0.15,0,0.23-0.15,0.23-0.46C1143.26,191.02,1143.18,190.87,1143.03,190.87z"></path>
<path d="M306.68,236.6c-1.75-0.79-3.73-1.3-5.9-1.53c2.36-0.9,4.3-2.1,5.79-3.61c2.18-2.21,3.27-4.73,3.27-7.57 c0-2.08-0.53-3.86-1.6-5.33c-1.07-1.47-2.63-2.6-4.68-3.39c-2.06-0.79-4.61-1.18-7.65-1.18c-1.47,0-3.02,0.08-4.64,0.23 c-1.62,0.15-3.15,0.23-4.57,0.23c-1.78,0-3.46-0.04-5.06-0.11c-1.6-0.08-3.03-0.11-4.3-0.11c-0.1,0-0.15,0.15-0.15,0.46 c0,0.3,0.05,0.46,0.15,0.46c1.57,0,2.78,0.14,3.62,0.42c0.84,0.28,1.41,0.79,1.71,1.52c0.3,0.74,0.46,1.84,0.46,3.31v35.25 c0,1.47-0.17,2.59-0.49,3.35c-0.33,0.76-0.91,1.27-1.75,1.52c-0.84,0.25-2.04,0.38-3.62,0.38c-0.15,0-0.23,0.15-0.23,0.46 c0,0.3,0.08,0.46,0.23,0.46c1.27,0,2.71-0.02,4.34-0.08c1.62-0.05,3.32-0.08,5.1-0.08c1.72,0,3.63,0.08,5.71,0.23 c2.08,0.15,3.86,0.23,5.33,0.23c3.2,0,6.06-0.62,8.6-1.87c2.54-1.24,4.53-2.94,5.98-5.1c1.45-2.16,2.17-4.55,2.17-7.19 c0-2.54-0.69-4.78-2.06-6.74C311.06,239.26,309.14,237.72,306.68,236.6z M290.81,217.34c0.25-0.71,0.7-1.19,1.33-1.45 c0.63-0.25,1.46-0.38,2.47-0.38c1.83,0,3.34,0.36,4.53,1.07c1.19,0.71,2.08,1.75,2.66,3.12c0.58,1.37,0.88,3,0.88,4.87 c0,2.94-0.74,5.43-2.21,7.46c-1.47,2.03-3.78,3.05-6.93,3.05c-0.1,0-0.69-0.01-1.75-0.04c-0.41-0.01-0.87-0.02-1.37-0.03v-14.47 C290.43,219.12,290.55,218.05,290.81,217.34z M304.36,257.58c-1.63,1.85-4.24,2.78-7.84,2.78c-1.78,0-3.11-0.16-4-0.49 c-0.89-0.33-1.46-0.85-1.71-1.56c-0.25-0.71-0.38-1.6-0.38-2.66v-18.52c0.51-0.05,1.03-0.09,1.52-0.1 c1.27-0.02,2.28-0.04,3.05-0.04c3.96,0,6.92,1.19,8.87,3.58c1.95,2.39,2.93,5.46,2.93,9.21 C306.8,253.12,305.98,255.73,304.36,257.58z"></path>
<path d="M370.44,214.22c-1.07,0-2.25,0.04-3.54,0.11c-1.29,0.08-2.6,0.11-3.92,0.11c-1.52,0-2.93-0.04-4.23-0.11 s-2.58-0.11-3.84-0.11c-0.1,0-0.15,0.15-0.15,0.46c0,0.3,0.05,0.46,0.15,0.46c2.23,0,3.95,0.74,5.14,2.21 c1.19,1.47,1.79,3.53,1.79,6.17v21.39c0,4.87-1.22,8.64-3.65,11.31c-2.44,2.66-5.81,4-10.13,4c-4.42,0-7.91-1.45-10.47-4.34 c-2.56-2.89-3.84-7.43-3.84-13.63v-21.7c0-1.47,0.14-2.59,0.42-3.35c0.28-0.76,0.82-1.29,1.64-1.6c0.81-0.3,2.06-0.46,3.73-0.46 c0.15,0,0.23-0.15,0.23-0.46c0-0.3-0.08-0.46-0.23-0.46c-1.27,0-2.69,0.04-4.26,0.11c-1.57,0.08-3.3,0.11-5.18,0.11 c-1.78,0-3.46-0.04-5.06-0.11c-1.6-0.08-3.03-0.11-4.3-0.11c-0.15,0-0.23,0.15-0.23,0.46c0,0.3,0.08,0.46,0.23,0.46 c1.62,0,2.86,0.14,3.69,0.42c0.84,0.28,1.4,0.79,1.68,1.52c0.28,0.74,0.42,1.84,0.42,3.31v24.51c0,3.71,0.8,6.9,2.4,9.59 c1.6,2.69,3.84,4.76,6.74,6.2c2.89,1.45,6.19,2.17,9.9,2.17c3.76,0,7.03-0.74,9.82-2.21c2.79-1.47,4.96-3.55,6.51-6.24 c1.55-2.69,2.32-5.89,2.32-9.59v-21.32c0-2.64,0.53-4.69,1.6-6.17c1.07-1.47,2.61-2.21,4.64-2.21c0.1,0,0.15-0.15,0.15-0.46 C370.59,214.37,370.54,214.22,370.44,214.22z"></path>
<path d="M388.67,217.19c0.28-0.76,0.84-1.29,1.68-1.6c0.84-0.3,2.07-0.46,3.69-0.46c0.15,0,0.23-0.15,0.23-0.46 c0-0.3-0.08-0.46-0.23-0.46c-1.27,0-2.7,0.04-4.3,0.11c-1.6,0.08-3.34,0.11-5.22,0.11c-1.78,0-3.46-0.04-5.06-0.11 c-1.6-0.08-3.06-0.11-4.38-0.11c-0.15,0-0.23,0.15-0.23,0.46c0,0.3,0.08,0.46,0.23,0.46c1.67,0,2.93,0.14,3.77,0.42 c0.84,0.28,1.4,0.79,1.67,1.52c0.28,0.74,0.42,1.84,0.42,3.31v35.25c0,1.47-0.14,2.59-0.42,3.35c-0.28,0.76-0.85,1.27-1.71,1.52 c-0.86,0.25-2.11,0.38-3.73,0.38c-0.15,0-0.23,0.15-0.23,0.46c0,0.3,0.08,0.46,0.23,0.46c1.32,0,2.78-0.02,4.38-0.08 c1.6-0.05,3.29-0.08,5.06-0.08c1.88,0,3.6,0.03,5.18,0.08c1.57,0.05,3.02,0.08,4.34,0.08c0.15,0,0.23-0.15,0.23-0.46 c0-0.3-0.08-0.46-0.23-0.46c-1.68,0-2.92-0.13-3.73-0.38c-0.81-0.25-1.36-0.76-1.64-1.52c-0.28-0.76-0.42-1.88-0.42-3.35v-35.1 C388.26,219.07,388.39,217.95,388.67,217.19z"></path>
<path d="M437.06,248.56c-0.25-0.05-0.41,0-0.46,0.15c-0.81,3.35-2.46,6.04-4.95,8.07c-2.49,2.03-5.53,3.05-9.14,3.05h-4.57 c-1.37,0-2.41-0.1-3.12-0.3c-0.71-0.2-1.19-0.63-1.45-1.29c-0.25-0.66-0.38-1.62-0.38-2.89v-34.87c0-1.47,0.14-2.59,0.42-3.35 c0.28-0.76,0.84-1.28,1.68-1.56c0.84-0.28,2.07-0.42,3.69-0.42c0.15,0,0.23-0.15,0.23-0.46c0-0.3-0.08-0.46-0.23-0.46 c-1.22,0-2.63,0.04-4.23,0.11c-1.6,0.08-3.34,0.11-5.22,0.11c-1.78,0-3.48-0.04-5.1-0.11c-1.62-0.08-3.05-0.11-4.26-0.11 c-0.1,0-0.15,0.15-0.15,0.46c0,0.3,0.05,0.46,0.15,0.46c1.62,0,2.85,0.14,3.69,0.42c0.84,0.28,1.4,0.79,1.68,1.52 c0.28,0.74,0.42,1.84,0.42,3.31v35.25c0,1.47-0.14,2.59-0.42,3.35c-0.28,0.76-0.84,1.27-1.68,1.52 c-0.84,0.25-2.07,0.38-3.69,0.38c-0.1,0-0.15,0.15-0.15,0.46c0,0.3,0.05,0.46,0.15,0.46h35.63c0.76,0,1.14-0.38,1.14-1.14 c0-1.88,0.08-3.92,0.23-6.13c0.15-2.21,0.3-4.1,0.46-5.67C437.44,248.71,437.31,248.61,437.06,248.56z"></path>
<path d="M475.81,217.11c-3.96-2.03-8.6-3.05-13.93-3.05c-1.47,0-3.26,0.06-5.37,0.19c-2.11,0.13-4.05,0.19-5.82,0.19 c-1.83,0-3.54-0.04-5.14-0.11c-1.6-0.08-3.03-0.11-4.3-0.11c-0.1,0-0.15,0.15-0.15,0.46c0,0.3,0.05,0.46,0.15,0.46 c1.62,0,2.85,0.14,3.69,0.42c0.84,0.28,1.4,0.79,1.67,1.52c0.28,0.74,0.42,1.84,0.42,3.31v35.25c0,1.47-0.14,2.59-0.42,3.35 c-0.28,0.76-0.84,1.27-1.67,1.52c-0.84,0.25-2.09,0.38-3.77,0.38c-0.1,0-0.15,0.15-0.15,0.46c0,0.3,0.05,0.46,0.15,0.46 c1.27,0,2.71-0.02,4.34-0.08c1.62-0.05,3.32-0.08,5.1-0.08c1.98,0,4.14,0.08,6.47,0.23c2.33,0.15,4.29,0.23,5.86,0.23 c3.4,0,6.64-0.58,9.71-1.75c3.07-1.17,5.77-2.83,8.11-4.99c2.33-2.16,4.17-4.77,5.52-7.84c1.34-3.07,2.02-6.51,2.02-10.32 c0-4.36-1.09-8.3-3.27-11.8C482.84,221.91,479.76,219.14,475.81,217.11z M477.82,250.69c-1.55,3.25-3.67,5.71-6.36,7.38 c-2.69,1.68-5.79,2.51-9.29,2.51c-3.3,0-5.44-0.47-6.43-1.41c-0.99-0.94-1.48-2.4-1.48-4.38v-34.26c0-2.13,0.65-3.49,1.94-4.07 c1.29-0.58,3.44-0.88,6.43-0.88c3.6,0,6.71,1.03,9.33,3.08c2.61,2.06,4.63,4.85,6.05,8.37c1.42,3.53,2.13,7.47,2.13,11.84 C480.15,243.51,479.37,247.44,477.82,250.69z"></path>
<path d="M508.96,217.19c0.28-0.76,0.84-1.29,1.68-1.6c0.84-0.3,2.07-0.46,3.69-0.46c0.15,0,0.23-0.15,0.23-0.46 c0-0.3-0.08-0.46-0.23-0.46c-1.27,0-2.7,0.04-4.3,0.11c-1.6,0.08-3.34,0.11-5.22,0.11c-1.78,0-3.46-0.04-5.06-0.11 c-1.6-0.08-3.06-0.11-4.38-0.11c-0.15,0-0.23,0.15-0.23,0.46c0,0.3,0.08,0.46,0.23,0.46c1.67,0,2.93,0.14,3.77,0.42 c0.84,0.28,1.4,0.79,1.68,1.52c0.28,0.74,0.42,1.84,0.42,3.31v35.25c0,1.47-0.14,2.59-0.42,3.35c-0.28,0.76-0.85,1.27-1.71,1.52 c-0.86,0.25-2.11,0.38-3.73,0.38c-0.15,0-0.23,0.15-0.23,0.46c0,0.3,0.08,0.46,0.23,0.46c1.32,0,2.78-0.02,4.38-0.08 c1.6-0.05,3.29-0.08,5.06-0.08c1.88,0,3.6,0.03,5.18,0.08c1.57,0.05,3.02,0.08,4.34,0.08c0.15,0,0.23-0.15,0.23-0.46 c0-0.3-0.08-0.46-0.23-0.46c-1.68,0-2.92-0.13-3.73-0.38c-0.81-0.25-1.36-0.76-1.64-1.52c-0.28-0.76-0.42-1.88-0.42-3.35v-35.1 C508.54,219.07,508.68,217.95,508.96,217.19z"></path>
<path d="M572.34,214.22c-1.07,0-2.23,0.04-3.5,0.11c-1.27,0.08-2.56,0.11-3.88,0.11c-1.37,0-2.64-0.04-3.81-0.11 c-1.17-0.08-2.28-0.11-3.35-0.11c-0.1,0-0.15,0.15-0.15,0.46c0,0.3,0.05,0.46,0.15,0.46c2.03,0,3.57,0.72,4.61,2.17 c1.04,1.45,1.56,3.52,1.56,6.2v26.92l-27.41-32.25c-1.22-1.47-1.98-2.5-2.28-3.08c-0.3-0.58-0.79-0.88-1.45-0.88 c-0.66,0-1.61,0.03-2.86,0.08c-1.24,0.05-2.63,0.08-4.15,0.08c-0.86,0-1.8-0.02-2.82-0.08c-1.02-0.05-2.01-0.08-2.97-0.08 c-0.15,0-0.23,0.15-0.23,0.46c0,0.3,0.08,0.46,0.23,0.46c1.22,0,2.47,0.37,3.77,1.1c1.02,0.58,2.2,1.58,3.54,2.98v33.37 c0,2.69-0.58,4.75-1.75,6.17c-1.17,1.42-2.87,2.13-5.1,2.13c-0.15,0-0.23,0.15-0.23,0.46c0,0.3,0.08,0.46,0.23,0.46 c1.17,0,2.42-0.02,3.77-0.08c1.34-0.05,2.75-0.08,4.23-0.08c1.37,0,2.63,0.03,3.77,0.08c1.14,0.05,2.25,0.08,3.31,0.08 c0.15,0,0.23-0.15,0.23-0.46c0-0.3-0.08-0.46-0.23-0.46c-1.98,0-3.5-0.71-4.57-2.13c-1.07-1.42-1.6-3.48-1.6-6.17v-31.06 l35.71,41.57c0.1,0.05,0.28,0.06,0.53,0.04c0.25-0.03,0.38-0.11,0.38-0.27v-39.36c0-2.69,0.54-4.76,1.64-6.2 c1.09-1.45,2.65-2.17,4.68-2.17c0.15,0,0.23-0.15,0.23-0.46C572.57,214.37,572.49,214.22,572.34,214.22z"></path>
<path d="M625.86,243c-3.05,0.15-5.95,0.22-8.72,0.19c-2.77-0.02-5.88-0.14-9.33-0.34c-0.25,0-0.38,0.2-0.38,0.61 c0,0.41,0.15,0.61,0.46,0.61c2.49,0,4.29,0.18,5.41,0.53c1.12,0.36,1.81,1.1,2.09,2.25c0.28,1.14,0.42,2.93,0.42,5.37 c0,2.49-0.28,4.4-0.84,5.75c-0.56,1.35-1.47,2.27-2.74,2.78c-1.27,0.51-2.94,0.76-5.02,0.76c-3.35,0-6.37-0.63-9.06-1.9 c-2.69-1.27-4.99-3.05-6.89-5.33c-1.9-2.28-3.36-4.91-4.38-7.88c-1.02-2.97-1.52-6.2-1.52-9.71c0-4.52,0.84-8.4,2.51-11.65 c1.67-3.25,3.93-5.76,6.78-7.54c2.84-1.78,6.01-2.66,9.52-2.66c2.49,0,4.68,0.43,6.59,1.29c1.9,0.86,3.54,1.94,4.91,3.24 c1.37,1.29,2.5,2.68,3.39,4.15c0.89,1.47,1.53,2.84,1.94,4.11c0.1,0.15,0.28,0.2,0.53,0.15c0.25-0.05,0.38-0.15,0.38-0.3 l-0.99-9.97c-0.05-0.71-0.11-1.13-0.19-1.26c-0.08-0.13-0.37-0.29-0.88-0.49c-1.52-0.76-3.49-1.34-5.9-1.75 c-2.41-0.41-4.86-0.61-7.35-0.61c-4.21,0-8.1,0.6-11.65,1.79c-3.55,1.19-6.65,2.88-9.29,5.06c-2.64,2.18-4.7,4.78-6.17,7.8 c-1.47,3.02-2.21,6.38-2.21,10.09c0,3.4,0.62,6.57,1.86,9.52c1.24,2.94,3.07,5.55,5.48,7.8c2.41,2.26,5.35,4.03,8.83,5.33 c3.48,1.29,7.42,1.94,11.84,1.94c2.69,0,5.53-0.2,8.53-0.61c2.99-0.41,5.84-0.91,8.53-1.52c0.35-0.1,0.58-0.2,0.68-0.3 c0.1-0.1,0.15-0.3,0.15-0.61c0-0.41-0.04-0.8-0.11-1.18s-0.17-0.98-0.27-1.79c-0.1-0.81-0.15-2.06-0.15-3.73 c0-2.69,0.06-4.67,0.19-5.94c0.13-1.27,0.42-2.09,0.88-2.47c0.46-0.38,1.17-0.54,2.13-0.49c0.25,0,0.37-0.18,0.34-0.53 C626.18,243.18,626.06,243,625.86,243z"></path>
<path d="M663.51,217.19c0.28-0.76,0.84-1.29,1.67-1.6c0.84-0.3,2.07-0.46,3.69-0.46c0.15,0,0.23-0.15,0.23-0.46 c0-0.3-0.08-0.46-0.23-0.46c-1.27,0-2.7,0.04-4.3,0.11c-1.6,0.08-3.34,0.11-5.22,0.11c-1.78,0-3.46-0.04-5.06-0.11 c-1.6-0.08-3.06-0.11-4.38-0.11c-0.15,0-0.23,0.15-0.23,0.46c0,0.3,0.08,0.46,0.23,0.46c1.67,0,2.93,0.14,3.77,0.42 c0.84,0.28,1.4,0.79,1.68,1.52c0.28,0.74,0.42,1.84,0.42,3.31v35.25c0,1.47-0.14,2.59-0.42,3.35c-0.28,0.76-0.85,1.27-1.71,1.52 c-0.86,0.25-2.11,0.38-3.73,0.38c-0.15,0-0.23,0.15-0.23,0.46c0,0.3,0.08,0.46,0.23,0.46c1.32,0,2.78-0.02,4.38-0.08 c1.6-0.05,3.29-0.08,5.06-0.08c1.88,0,3.6,0.03,5.18,0.08c1.57,0.05,3.02,0.08,4.34,0.08c0.15,0,0.23-0.15,0.23-0.46 c0-0.3-0.08-0.46-0.23-0.46c-1.67,0-2.92-0.13-3.73-0.38c-0.81-0.25-1.36-0.76-1.64-1.52c-0.28-0.76-0.42-1.88-0.42-3.35v-35.1 C663.09,219.07,663.23,217.95,663.51,217.19z"></path>
<path d="M726.89,214.22c-1.07,0-2.23,0.04-3.5,0.11c-1.27,0.08-2.56,0.11-3.88,0.11c-1.37,0-2.64-0.04-3.81-0.11 c-1.17-0.08-2.28-0.11-3.35-0.11c-0.1,0-0.15,0.15-0.15,0.46c0,0.3,0.05,0.46,0.15,0.46c2.03,0,3.57,0.72,4.61,2.17 c1.04,1.45,1.56,3.52,1.56,6.2v26.92l-27.41-32.25c-1.22-1.47-1.98-2.5-2.28-3.08c-0.3-0.58-0.79-0.88-1.45-0.88 c-0.66,0-1.61,0.03-2.86,0.08c-1.24,0.05-2.63,0.08-4.15,0.08c-0.86,0-1.8-0.02-2.82-0.08c-1.02-0.05-2.01-0.08-2.97-0.08 c-0.15,0-0.23,0.15-0.23,0.46c0,0.3,0.08,0.46,0.23,0.46c1.22,0,2.47,0.37,3.77,1.1c1.02,0.58,2.2,1.58,3.54,2.98v33.37 c0,2.69-0.58,4.75-1.75,6.17c-1.17,1.42-2.87,2.13-5.1,2.13c-0.15,0-0.23,0.15-0.23,0.46c0,0.3,0.08,0.46,0.23,0.46 c1.17,0,2.42-0.02,3.77-0.08c1.34-0.05,2.75-0.08,4.23-0.08c1.37,0,2.63,0.03,3.77,0.08c1.14,0.05,2.25,0.08,3.31,0.08 c0.15,0,0.23-0.15,0.23-0.46c0-0.3-0.08-0.46-0.23-0.46c-1.98,0-3.5-0.71-4.57-2.13c-1.07-1.42-1.6-3.48-1.6-6.17v-31.06 l35.71,41.57c0.1,0.05,0.28,0.06,0.53,0.04c0.25-0.03,0.38-0.11,0.38-0.27v-39.36c0-2.69,0.54-4.76,1.64-6.2 c1.09-1.45,2.65-2.17,4.68-2.17c0.15,0,0.23-0.15,0.23-0.46C727.12,214.37,727.04,214.22,726.89,214.22z"></path>
<path d="M756.62,238.58c-1.75-1.32-3.59-2.56-5.52-3.73c-1.78-1.12-3.46-2.26-5.06-3.43c-1.6-1.17-2.91-2.47-3.92-3.92 c-1.02-1.45-1.52-3.16-1.52-5.14c0-1.57,0.3-2.9,0.91-4c0.61-1.09,1.47-1.94,2.59-2.55c1.12-0.61,2.44-0.91,3.96-0.91 c1.98,0,3.65,0.48,5.02,1.45c1.37,0.96,2.51,2.13,3.43,3.5c0.91,1.37,1.62,2.73,2.13,4.07c0.51,1.35,0.89,2.4,1.14,3.16 c0.1,0.15,0.27,0.2,0.49,0.15c0.23-0.05,0.34-0.18,0.34-0.38l-0.15-10.28c0-0.3-0.08-0.58-0.23-0.84 c-0.15-0.25-0.46-0.46-0.91-0.61c-1.22-0.56-2.69-0.99-4.42-1.29c-1.73-0.3-3.43-0.46-5.1-0.46c-2.49,0-4.91,0.43-7.27,1.29 c-2.36,0.86-4.3,2.18-5.82,3.96c-1.52,1.78-2.28,4.06-2.28,6.85c0,2.28,0.52,4.23,1.56,5.82c1.04,1.6,2.37,3.01,4,4.23 c1.62,1.22,3.32,2.41,5.1,3.58c1.83,1.12,3.58,2.31,5.25,3.58c1.68,1.27,3.06,2.75,4.15,4.45c1.09,1.7,1.64,3.74,1.64,6.13 c0,1.98-0.38,3.54-1.14,4.68c-0.76,1.14-1.73,1.94-2.89,2.4c-1.17,0.46-2.41,0.69-3.73,0.69c-1.88,0-3.54-0.44-4.99-1.33 c-1.45-0.89-2.73-2.04-3.84-3.46c-1.12-1.42-2.09-2.98-2.93-4.68c-0.84-1.7-1.56-3.31-2.17-4.83c-0.05-0.2-0.22-0.29-0.49-0.27 c-0.28,0.03-0.39,0.17-0.34,0.42l0.46,11.5c0.05,0.41,0.14,0.71,0.27,0.91c0.13,0.2,0.29,0.38,0.49,0.53 c0.81,0.51,1.87,0.99,3.16,1.45c1.29,0.46,2.69,0.81,4.19,1.07c1.5,0.25,2.93,0.38,4.3,0.38c3.25,0,6.08-0.57,8.49-1.71 c2.41-1.14,4.3-2.71,5.67-4.72c1.37-2,2.06-4.33,2.06-6.97c0-2.44-0.57-4.5-1.71-6.2C759.81,241.41,758.37,239.9,756.62,238.58z"></path>
<path d="M812.23,212.01c-0.25,0-0.41,0.1-0.46,0.3c-0.25,0.81-0.85,1.33-1.79,1.56c-0.94,0.23-2.32,0.34-4.15,0.34 c-1.98,0-4.02,0.04-6.13,0.11c-2.11,0.08-4.96,0.11-8.56,0.11c-5.84,0-10.94-0.08-15.3-0.23c-0.46,0-1.02-0.04-1.68-0.11 c-0.66-0.08-1.26-0.23-1.79-0.46c-0.53-0.23-0.8-0.6-0.8-1.1c0-0.25-0.14-0.38-0.42-0.38c-0.28,0-0.42,0.13-0.42,0.38 c0,0.86-0.04,1.99-0.11,3.39c-0.08,1.4-0.18,2.83-0.3,4.3c-0.13,1.47-0.24,2.83-0.34,4.07c-0.1,1.24-0.2,2.22-0.3,2.93 c0,0.1,0.14,0.17,0.42,0.19c0.28,0.03,0.42-0.04,0.42-0.19c1.12-3.76,2.65-6.6,4.61-8.53c1.95-1.93,4.48-2.89,7.58-2.89 c1.37,0,2.41,0.13,3.12,0.38c0.71,0.25,1.18,0.7,1.41,1.33c0.23,0.64,0.34,1.59,0.34,2.85v35.25c0,1.47-0.17,2.59-0.49,3.35 c-0.33,0.76-0.98,1.27-1.94,1.52c-0.96,0.25-2.41,0.38-4.34,0.38c-0.1,0-0.15,0.15-0.15,0.46c0,0.3,0.05,0.46,0.15,0.46 c1.47,0,3.07-0.02,4.8-0.08c1.72-0.05,3.58-0.08,5.56-0.08c2.08,0,4,0.03,5.75,0.08c1.75,0.05,3.31,0.08,4.68,0.08 c0.15,0,0.23-0.15,0.23-0.46c0-0.3-0.08-0.46-0.23-0.46c-1.93,0-3.36-0.13-4.3-0.38c-0.94-0.25-1.57-0.76-1.9-1.52 c-0.33-0.76-0.49-1.88-0.49-3.35v-35.1c0-1.27,0.13-2.25,0.38-2.93c0.25-0.69,0.74-1.15,1.45-1.41c0.71-0.25,1.75-0.38,3.12-0.38 c3.15,0,5.66,0.9,7.54,2.7c1.88,1.8,3.1,4.71,3.65,8.72c0.05,0.1,0.22,0.15,0.49,0.15c0.28,0,0.42-0.05,0.42-0.15 c0-0.66,0.02-1.64,0.08-2.93c0.05-1.29,0.1-2.71,0.15-4.26c0.05-1.55,0.13-3.02,0.23-4.42c0.1-1.4,0.18-2.5,0.23-3.31 C812.61,212.11,812.48,212.01,812.23,212.01z"></path>
<path d="M832.37,217.19c0.28-0.76,0.84-1.29,1.68-1.6c0.84-0.3,2.07-0.46,3.69-0.46c0.15,0,0.23-0.15,0.23-0.46 c0-0.3-0.08-0.46-0.23-0.46c-1.27,0-2.7,0.04-4.3,0.11c-1.6,0.08-3.34,0.11-5.22,0.11c-1.78,0-3.46-0.04-5.06-0.11 c-1.6-0.08-3.06-0.11-4.38-0.11c-0.15,0-0.23,0.15-0.23,0.46c0,0.3,0.08,0.46,0.23,0.46c1.67,0,2.93,0.14,3.77,0.42 c0.84,0.28,1.4,0.79,1.67,1.52c0.28,0.74,0.42,1.84,0.42,3.31v35.25c0,1.47-0.14,2.59-0.42,3.35c-0.28,0.76-0.85,1.27-1.71,1.52 c-0.86,0.25-2.11,0.38-3.73,0.38c-0.15,0-0.23,0.15-0.23,0.46c0,0.3,0.08,0.46,0.23,0.46c1.32,0,2.78-0.02,4.38-0.08 c1.6-0.05,3.29-0.08,5.06-0.08c1.88,0,3.6,0.03,5.18,0.08c1.57,0.05,3.02,0.08,4.34,0.08c0.15,0,0.23-0.15,0.23-0.46 c0-0.3-0.08-0.46-0.23-0.46c-1.67,0-2.92-0.13-3.73-0.38c-0.81-0.25-1.36-0.76-1.64-1.52c-0.28-0.76-0.42-1.88-0.42-3.35v-35.1 C831.95,219.07,832.09,217.95,832.37,217.19z"></path>
<path d="M886.76,212.01c-0.25,0-0.41,0.1-0.46,0.3c-0.25,0.81-0.85,1.33-1.79,1.56c-0.94,0.23-2.32,0.34-4.15,0.34 c-1.98,0-4.02,0.04-6.13,0.11c-2.11,0.08-4.96,0.11-8.56,0.11c-5.84,0-10.94-0.08-15.3-0.23c-0.46,0-1.02-0.04-1.67-0.11 c-0.66-0.08-1.26-0.23-1.79-0.46c-0.53-0.23-0.8-0.6-0.8-1.1c0-0.25-0.14-0.38-0.42-0.38c-0.28,0-0.42,0.13-0.42,0.38 c0,0.86-0.04,1.99-0.11,3.39c-0.08,1.4-0.18,2.83-0.3,4.3c-0.13,1.47-0.24,2.83-0.34,4.07c-0.1,1.24-0.2,2.22-0.3,2.93 c0,0.1,0.14,0.17,0.42,0.19c0.28,0.03,0.42-0.04,0.42-0.19c1.12-3.76,2.65-6.6,4.61-8.53c1.95-1.93,4.48-2.89,7.58-2.89 c1.37,0,2.41,0.13,3.12,0.38c0.71,0.25,1.18,0.7,1.41,1.33c0.23,0.64,0.34,1.59,0.34,2.85v35.25c0,1.47-0.17,2.59-0.49,3.35 c-0.33,0.76-0.98,1.27-1.94,1.52c-0.96,0.25-2.41,0.38-4.34,0.38c-0.1,0-0.15,0.15-0.15,0.46c0,0.3,0.05,0.46,0.15,0.46 c1.47,0,3.07-0.02,4.8-0.08c1.72-0.05,3.58-0.08,5.56-0.08c2.08,0,4,0.03,5.75,0.08c1.75,0.05,3.31,0.08,4.68,0.08 c0.15,0,0.23-0.15,0.23-0.46c0-0.3-0.08-0.46-0.23-0.46c-1.93,0-3.36-0.13-4.3-0.38c-0.94-0.25-1.57-0.76-1.9-1.52 c-0.33-0.76-0.49-1.88-0.49-3.35v-35.1c0-1.27,0.13-2.25,0.38-2.93c0.25-0.69,0.74-1.15,1.45-1.41c0.71-0.25,1.75-0.38,3.12-0.38 c3.15,0,5.66,0.9,7.54,2.7c1.88,1.8,3.1,4.71,3.65,8.72c0.05,0.1,0.22,0.15,0.49,0.15c0.28,0,0.42-0.05,0.42-0.15 c0-0.66,0.02-1.64,0.08-2.93c0.05-1.29,0.1-2.71,0.15-4.26c0.05-1.55,0.13-3.02,0.23-4.42c0.1-1.4,0.18-2.5,0.23-3.31 C887.14,212.11,887.02,212.01,886.76,212.01z"></path>
<path d="M942.04,214.22c-1.07,0-2.25,0.04-3.54,0.11c-1.29,0.08-2.6,0.11-3.92,0.11c-1.52,0-2.93-0.04-4.23-0.11 c-1.29-0.08-2.58-0.11-3.84-0.11c-0.1,0-0.15,0.15-0.15,0.46c0,0.3,0.05,0.46,0.15,0.46c2.23,0,3.95,0.74,5.14,2.21 c1.19,1.47,1.79,3.53,1.79,6.17v21.39c0,4.87-1.22,8.64-3.65,11.31c-2.44,2.66-5.81,4-10.13,4c-4.42,0-7.91-1.45-10.47-4.34 c-2.56-2.89-3.84-7.43-3.84-13.63v-21.7c0-1.47,0.14-2.59,0.42-3.35c0.28-0.76,0.82-1.29,1.64-1.6c0.81-0.3,2.06-0.46,3.73-0.46 c0.15,0,0.23-0.15,0.23-0.46c0-0.3-0.08-0.46-0.23-0.46c-1.27,0-2.69,0.04-4.26,0.11c-1.57,0.08-3.3,0.11-5.18,0.11 c-1.78,0-3.46-0.04-5.06-0.11c-1.6-0.08-3.03-0.11-4.3-0.11c-0.15,0-0.23,0.15-0.23,0.46c0,0.3,0.08,0.46,0.23,0.46 c1.62,0,2.86,0.14,3.69,0.42c0.84,0.28,1.4,0.79,1.67,1.52c0.28,0.74,0.42,1.84,0.42,3.31v24.51c0,3.71,0.8,6.9,2.4,9.59 c1.6,2.69,3.84,4.76,6.74,6.2c2.89,1.45,6.19,2.17,9.9,2.17c3.76,0,7.03-0.74,9.82-2.21c2.79-1.47,4.96-3.55,6.51-6.24 c1.55-2.69,2.32-5.89,2.32-9.59v-21.32c0-2.64,0.53-4.69,1.6-6.17c1.07-1.47,2.61-2.21,4.64-2.21c0.1,0,0.15-0.15,0.15-0.46 C942.19,214.37,942.14,214.22,942.04,214.22z"></path>
<path d="M988.86,212.01c-0.25,0-0.41,0.1-0.46,0.3c-0.25,0.81-0.85,1.33-1.79,1.56c-0.94,0.23-2.32,0.34-4.15,0.34 c-1.98,0-4.02,0.04-6.13,0.11c-2.11,0.08-4.96,0.11-8.56,0.11c-5.84,0-10.94-0.08-15.3-0.23c-0.46,0-1.02-0.04-1.67-0.11 c-0.66-0.08-1.26-0.23-1.79-0.46c-0.53-0.23-0.8-0.6-0.8-1.1c0-0.25-0.14-0.38-0.42-0.38c-0.28,0-0.42,0.13-0.42,0.38 c0,0.86-0.04,1.99-0.11,3.39c-0.08,1.4-0.18,2.83-0.3,4.3c-0.13,1.47-0.24,2.83-0.34,4.07c-0.1,1.24-0.2,2.22-0.3,2.93 c0,0.1,0.14,0.17,0.42,0.19c0.28,0.03,0.42-0.04,0.42-0.19c1.12-3.76,2.65-6.6,4.61-8.53c1.95-1.93,4.48-2.89,7.58-2.89 c1.37,0,2.41,0.13,3.12,0.38c0.71,0.25,1.18,0.7,1.41,1.33c0.23,0.64,0.34,1.59,0.34,2.85v35.25c0,1.47-0.17,2.59-0.49,3.35 c-0.33,0.76-0.98,1.27-1.94,1.52c-0.96,0.25-2.41,0.38-4.34,0.38c-0.1,0-0.15,0.15-0.15,0.46c0,0.3,0.05,0.46,0.15,0.46 c1.47,0,3.07-0.02,4.8-0.08c1.72-0.05,3.58-0.08,5.56-0.08c2.08,0,4,0.03,5.75,0.08c1.75,0.05,3.31,0.08,4.68,0.08 c0.15,0,0.23-0.15,0.23-0.46c0-0.3-0.08-0.46-0.23-0.46c-1.93,0-3.36-0.13-4.3-0.38c-0.94-0.25-1.57-0.76-1.9-1.52 c-0.33-0.76-0.49-1.88-0.49-3.35v-35.1c0-1.27,0.13-2.25,0.38-2.93c0.25-0.69,0.74-1.15,1.45-1.41c0.71-0.25,1.75-0.38,3.12-0.38 c3.15,0,5.66,0.9,7.54,2.7c1.88,1.8,3.1,4.71,3.65,8.72c0.05,0.1,0.22,0.15,0.49,0.15c0.28,0,0.42-0.05,0.42-0.15 c0-0.66,0.02-1.64,0.08-2.93c0.05-1.29,0.1-2.71,0.15-4.26c0.05-1.55,0.13-3.02,0.23-4.42c0.1-1.4,0.18-2.5,0.23-3.31 C989.24,212.11,989.11,212.01,988.86,212.01z"></path>
<path d="M1029.78,249.85c-0.28-0.05-0.44,0-0.49,0.15c-0.91,3.25-2.44,5.7-4.57,7.35c-2.13,1.65-4.92,2.47-8.37,2.47h-3.73 c-1.12,0-1.98-0.14-2.59-0.42c-0.61-0.28-1.05-0.76-1.33-1.45c-0.28-0.68-0.42-1.56-0.42-2.63v-17.28h7.23 c2.84,0,4.97,0.56,6.4,1.68c1.42,1.12,2.13,2.74,2.13,4.87c0,0.1,0.15,0.15,0.46,0.15c0.3,0,0.46-0.05,0.46-0.15 c0-1.42-0.04-2.73-0.11-3.92c-0.08-1.19-0.11-2.4-0.11-3.62c0-0.96,0.01-1.9,0.04-2.82c0.02-0.91,0.04-2.18,0.04-3.81 c0-0.15-0.14-0.23-0.42-0.23c-0.28,0-0.42,0.08-0.42,0.23c0,1.83-0.69,3.22-2.06,4.19c-1.37,0.96-3.48,1.45-6.32,1.45h-7.31 v-15.53c0-1.07,0.15-1.91,0.46-2.55c0.3-0.63,0.82-1.09,1.56-1.37c0.74-0.28,1.74-0.42,3.01-0.42h3.12c2.89,0,5.23,0.71,7,2.13 c1.78,1.42,2.94,3.58,3.5,6.47c0.1,0.15,0.28,0.22,0.53,0.19c0.25-0.02,0.38-0.09,0.38-0.19l-0.15-9.9 c0-0.46-0.26-0.68-0.76-0.68h-31.67c-0.15,0-0.23,0.15-0.23,0.46c0,0.3,0.08,0.46,0.23,0.46c1.67,0,2.92,0.14,3.73,0.42 c0.81,0.28,1.36,0.79,1.64,1.52c0.28,0.74,0.42,1.84,0.42,3.31v35.25c0,1.47-0.14,2.59-0.42,3.35c-0.28,0.76-0.83,1.27-1.64,1.52 c-0.81,0.25-2.06,0.38-3.73,0.38c-0.15,0-0.23,0.15-0.23,0.46c0,0.3,0.08,0.46,0.23,0.46h33.04c0.76,0,1.14-0.38,1.14-1.14 c0-1.68,0.08-3.5,0.23-5.48c0.15-1.98,0.33-3.68,0.53-5.1C1030.2,249.98,1030.06,249.9,1029.78,249.85z"></path>
</svg>